<svg id="Layer_1" height="512" viewBox="0 0 512 512" width="512" xmlns="http://www.w3.org/2000/svg" data-name="Layer 1"><path d="m346.118 306a44.249 44.249 0 0 0 8.792 26.442 176.714 176.714 0 0 0 22.423-18.967l7.474-7.475-7.474-7.473a176.723 176.723 0 0 0 -22.423-18.967 44.248 44.248 0 0 0 -8.792 26.44z"/><path d="m128.06 298.528-7.474 7.472 7.474 7.475c58.737 58.737 148.952 67.262 216.84 25.6a56.111 56.111 0 0 1 0-66.143c-67.888-41.667-158.1-33.141-216.84 25.596z"/><path d="m50.201 361.814 55.813-55.813-55.813-55.812z"/><path d="m454 73.087v-13.631a6 6 0 0 0 -12 0v12.269c.224 0 .434-.018.661-.018a44.577 44.577 0 0 1 11.339 1.38z"/><path d="m442.661 83.707c-.227 0-.438.013-.661.017v24.3c.224 0 .434-.018.661-.018a44.577 44.577 0 0 1 11.339 1.375v-23.675a29.917 29.917 0 0 0 -11.339-1.999z"/><path d="m442 120.018v32.267a38.728 38.728 0 0 0 0 76.521v183.046a34.693 34.693 0 0 1 -69.385 0v-19.786l8.722 9.9a6 6 0 0 0 9-7.933l-19.224-21.818a6 6 0 0 0 -10.5 3.966v35.672a46.693 46.693 0 0 0 93.385 0v-183.047a38.728 38.728 0 0 0 0-76.521v-30.285a29.9 29.9 0 0 0 -11.339-2c-.225 0-.436.014-.659.018z"/><path d="m412.192 120.267c-6.265 5.126-11.676 9.553-22.87 9.553s-16.6-4.427-22.866-9.553c-7.027-5.749-14.991-12.267-30.466-12.267s-23.439 6.517-30.466 12.266c-6.265 5.126-11.675 9.553-22.867 9.553s-16.6-4.427-22.866-9.553c-7.026-5.748-14.991-12.266-30.465-12.266s-23.438 6.517-30.465 12.266c-6.264 5.126-11.674 9.553-22.865 9.553-8.676 0-13.893-2.6-19.057-6.513-1.267-.959-2.493-1.963-3.819-3.048-2.193-1.793-4.459-3.648-7.033-5.367-4.43-2.958-11.677-6.891-23.424-6.891-15.474 0-23.438 6.517-30.464 12.266-6.265 5.126-11.676 9.553-22.866 9.553s-16.6-4.427-22.868-9.553c-7.026-5.748-14.99-12.266-30.465-12.266a6 6 0 0 0 0 12c11.191 0 16.6 4.427 22.867 9.553 7.026 5.75 14.99 12.266 30.466 12.266s23.438-6.519 30.467-12.265c6.264-5.126 11.675-9.553 22.865-9.553 8.342 0 13.153 2.462 16.759 4.87 2.09 1.4 4.037 2.989 6.127 4.7 1.327 1.086 2.7 2.208 4.147 3.3a40.567 40.567 0 0 0 26.302 8.949c15.475 0 23.439-6.516 30.464-12.266 6.265-5.126 11.676-9.553 22.866-9.553s16.6 4.427 22.866 9.553c7.027 5.75 14.991 12.266 30.465 12.266s23.44-6.516 30.466-12.266c6.261-5.126 11.673-9.554 22.863-9.554s16.6 4.427 22.867 9.553c7.026 5.75 14.991 12.266 30.465 12.266s23.442-6.516 30.469-12.265c6.138-5.022 11.471-9.362 22.209-9.537v-12c-15.034.189-22.883 6.583-29.808 12.25z"/><path d="m465.531 129.555c7.028 5.745 14.993 12.265 30.469 12.265a6 6 0 0 0 0-12c-11.193 0-16.6-4.427-22.87-9.553-5.064-4.143-10.632-8.672-19.13-10.886v12.619c4.446 1.773 7.845 4.539 11.531 7.555z"/><path d="m465.531 93.26c7.028 5.749 14.993 12.265 30.469 12.265a6 6 0 0 0 0-12c-11.193 0-16.6-4.427-22.87-9.553-5.064-4.143-10.63-8.672-19.13-10.885v12.619c4.446 1.773 7.845 4.539 11.531 7.554z"/><path d="m412.192 83.972c-6.265 5.126-11.676 9.553-22.87 9.553s-16.6-4.426-22.866-9.552c-7.027-5.75-14.991-12.266-30.466-12.266s-23.439 6.516-30.466 12.266c-6.265 5.126-11.675 9.552-22.867 9.552s-16.6-4.426-22.866-9.552c-7.026-5.75-14.99-12.266-30.465-12.266s-23.438 6.516-30.465 12.266c-6.261 5.127-11.674 9.552-22.861 9.552-8.676 0-13.893-2.6-19.057-6.513-1.267-.959-2.493-1.962-3.819-3.047-2.193-1.794-4.459-3.648-7.033-5.367-4.43-2.958-11.677-6.891-23.424-6.891-15.474 0-23.438 6.516-30.464 12.266-6.265 5.126-11.676 9.552-22.866 9.552s-16.607-4.425-22.872-9.552c-7.026-5.75-14.99-12.266-30.465-12.266a6 6 0 0 0 0 12c11.191 0 16.6 4.427 22.867 9.553 7.026 5.749 14.99 12.265 30.466 12.265s23.438-6.516 30.467-12.265c6.264-5.126 11.675-9.553 22.865-9.553 8.342 0 13.153 2.462 16.759 4.87 2.09 1.4 4.037 2.989 6.127 4.7 1.327 1.086 2.7 2.209 4.147 3.3a40.573 40.573 0 0 0 26.3 8.945c15.475 0 23.439-6.516 30.464-12.265 6.265-5.126 11.676-9.553 22.866-9.553s16.6 4.427 22.866 9.553c7.027 5.749 14.991 12.265 30.465 12.265s23.44-6.516 30.466-12.265c6.265-5.126 11.676-9.553 22.867-9.553s16.6 4.427 22.867 9.553c7.026 5.749 14.991 12.265 30.465 12.265s23.442-6.516 30.469-12.265c6.138-5.022 11.471-9.362 22.209-9.536v-12c-15.036.19-22.885 6.586-29.81 12.251z"/><path d="m370.479 254.139a11 11 0 1 0 11-11 11.013 11.013 0 0 0 -11 11zm12 0a1 1 0 1 1 -1-1 1 1 0 0 1 1 1z"/><path d="m339.963 201.623a11 11 0 1 0 11 11 11.012 11.012 0 0 0 -11-11zm0 12a1 1 0 1 1 1-1 1 1 0 0 1 -1 1z"/><path d="m309.24 170.9a11 11 0 1 0 -11 11 11.012 11.012 0 0 0 11-11zm-12 0a1 1 0 1 1 1 1 1 1 0 0 1 -1-1z"/><path d="m376.071 165.515a11 11 0 1 0 11 11 11.012 11.012 0 0 0 -11-11zm0 12a1 1 0 1 1 1-1 1 1 0 0 1 -1 1z"/></svg>